<svg fill="#fff" height="512" viewBox="0 0 512 512" width="512" xmlns="http://www.w3.org/2000/svg"><path d="M472.934 408.914c-47.064 63.764-128.998 103.825-216.934 103.075-87.937.75-169.872-39.312-216.935-103.075l-39.06 39.077v-127.997h127.997l-35.188 35.17c28.22 46.719 75.438 80.296 131.186 89.812v-193.513c-55.123-14.265-95.998-63.889-95.998-123.466 0-70.685 57.312-127.997 127.998-127.997 70.685 0 127.997 57.312 127.997 127.998 0 59.577-40.875 109.201-95.997 123.466v193.512c55.747-9.516 102.967-43.093 131.184-89.812l-35.187-35.17h127.996v127.997l-39.059-39.077zm-152.937-280.916c0-35.343-28.653-63.999-63.997-63.999-35.345 0-63.999 28.656-63.999 63.999s28.654 63.999 63.999 63.999c35.344-.001 63.997-28.657 63.997-63.999z"/></svg>
